<svg width="34" height="34" viewBox="0 0 34 34" fill="none" xmlns="http://www.w3.org/2000/svg">
<path fill-rule="evenodd" clip-rule="evenodd" d="M16.8027 32.3C25.0042 32.3 31.6527 25.45 31.6527 17C31.6527 8.55004 25.0042 1.7 16.8027 1.7C8.60131 1.7 1.95273 8.55004 1.95273 17C1.95273 25.45 8.60131 32.3 16.8027 32.3ZM16.8027 34C25.9154 34 33.3027 26.3888 33.3027 17C33.3027 7.61116 25.9154 0 16.8027 0C7.69004 0 0.302734 7.61116 0.302734 17C0.302734 26.3888 7.69004 34 16.8027 34Z" fill="#F6F6F6"/>
<path d="M10.135 12.0357H8.16996C8.1464 12.6417 7.31705 13.6743 6.07773 13.6743V15.342C7.14269 15.342 7.83539 14.9348 8.04273 14.6051H8.13226V21.9643H10.135V12.0357Z" fill="#F6F6F6"/>
<path d="M16.0311 22.1C18.1987 22.1 19.7679 20.9026 19.7773 19.2931C19.7679 18.052 18.8443 17.0388 17.6851 16.84V16.7721C18.6935 16.5588 19.4098 15.6571 19.4192 14.5712C19.4098 13.0344 17.9773 11.9 16.0311 11.9C14.0708 11.9 12.6383 13.0344 12.6477 14.5712C12.6383 15.6571 13.3546 16.5588 14.3818 16.7721V16.84C13.2038 17.0388 12.2802 18.052 12.2896 19.2931C12.2802 20.9026 13.8446 22.1 16.0311 22.1ZM16.0311 20.5584C15.0557 20.5584 14.4007 19.9718 14.4101 19.1282C14.4007 18.2702 15.0887 17.6496 16.0311 17.6496C16.9594 17.6496 17.6427 18.2702 17.6521 19.1282C17.6427 19.9718 16.9924 20.5584 16.0311 20.5584ZM16.0311 16.1225C15.2112 16.1225 14.6269 15.5747 14.6363 14.7894C14.6269 14.0185 15.2018 13.4804 16.0311 13.4804C16.8463 13.4804 17.4165 14.0185 17.4259 14.7894C17.4165 15.5747 16.8369 16.1225 16.0311 16.1225Z" fill="#F6F6F6"/>
<path d="M27.5277 16.2001H25.2093V13.8973H23.6307V16.2001H21.3123V17.7999H23.6307V20.1027H25.2093V17.7999H27.5277V16.2001Z" fill="#F6F6F6"/>
</svg>
