<svg width="37" height="26" viewBox="0 0 37 26" fill="none" xmlns="http://www.w3.org/2000/svg">
<g clip-path="url(#clip0_39943_16189)">
<path d="M24.4338 0.5H12.5664V19.6261H24.4338V0.5Z" fill="#EB3E33"/>
<path d="M12.5664 16.0372H20.5688V19.6261H24.4346V16.0372V7.47942V0.5L12.5664 16.0372Z" fill="#BAB295"/>
<path d="M36.302 0.5H24.4346V19.6261H36.302V0.5Z" fill="#EB3E33"/>
<path d="M12.5666 0.5H0.699219V19.6261H12.5666V0.5Z" fill="#BAB295"/>
<path d="M36.302 4.08887L24.4346 19.6261H36.302V4.08887Z" fill="#BAB295"/>
<path d="M22.551 4.08883L24.4346 0.5H36.302V4.08883H22.551Z" fill="#BAB295"/>
<path d="M8.66248 7.9387C8.66248 5.81324 6.8799 4.09033 4.68085 4.09033C2.48179 4.09033 0.699219 5.81324 0.699219 7.9387V19.626L7.83264 10.2904C8.35246 9.64042 8.66248 8.82474 8.66248 7.9387V7.9387Z" fill="#EB3E33"/>
<path d="M13.7063 23.5768C13.7063 24.2154 13.2695 24.5287 12.4631 24.5287H11.4196V25.4404H10.7502V22.6279H12.5414C13.3392 22.6279 13.7055 23.0093 13.7055 23.576L13.7063 23.5768ZM13.0245 23.5768C13.0245 23.2597 12.817 23.1266 12.4256 23.1266H11.4196V24.0383H12.4256C12.8162 24.0383 13.0245 23.8855 13.0245 23.576V23.5768Z" fill="#BAB295"/>
<path d="M15.8679 24.8903H14.2716L14.0219 25.4404H13.311L14.6576 22.6279H15.4803L16.8229 25.4404H16.1121L15.8671 24.8903H15.8679ZM15.6432 24.3962L15.0693 23.119L14.4955 24.3962H15.6424H15.6432Z" fill="#BAB295"/>
<path d="M19.4597 25.4409L18.8443 24.489H17.7843V25.4409H17.115V22.6284H18.9109C19.7008 22.6284 20.1079 22.9939 20.1079 23.5606C20.1079 24.0025 19.8918 24.2681 19.509 24.396L20.2034 25.4409H19.4597V25.4409ZM17.7843 23.9987H18.8858C19.2929 23.9987 19.426 23.7937 19.426 23.5606C19.426 23.3276 19.3015 23.1271 18.8858 23.1271H17.7843V23.9987V23.9987Z" fill="#BAB295"/>
<path d="M23.2002 23.1273H22.0987V25.4411H21.4294V23.1273H20.3279V22.6294H23.2002V23.1273Z" fill="#BAB295"/>
<path d="M26.5986 22.6284V25.4409H25.8462L24.2336 23.432V25.4409H23.5642V22.6284H24.3126L25.9253 24.6411V22.6284H26.5986Z" fill="#BAB295"/>
<path d="M29.5968 25.4404H27.0032V22.6279H29.5553V23.1258H27.6725V23.7485H29.4394V24.2426H27.6725V24.9418H29.5968V25.4397V25.4404Z" fill="#BAB295"/>
<path d="M32.3039 25.4404L31.6886 24.4886H30.6286V25.4404H29.9592V22.6279H31.7551C32.545 22.6279 32.9521 22.9934 32.9521 23.5601C32.9521 24.002 32.736 24.2676 32.3532 24.3955L33.0476 25.4404H32.3039ZM30.6286 23.9982H31.7301C32.1371 23.9982 32.2702 23.7932 32.2702 23.5601C32.2702 23.3271 32.1458 23.1266 31.7301 23.1266H30.6286V23.9982V23.9982Z" fill="#BAB295"/>
<path d="M36.3027 24.5641C36.3027 25.1747 35.7829 25.5 34.748 25.5C33.713 25.5 33.2144 25.1346 33.2144 24.5641H33.9127C33.9291 24.8576 34.2783 25.0059 34.8067 25.0059C35.3351 25.0059 35.5927 24.8652 35.5927 24.6526C35.5927 24.3635 35.1441 24.3915 34.3495 24.2629C33.5557 24.1343 33.306 23.9012 33.306 23.4593C33.306 23.0174 33.6301 22.5718 34.6987 22.5718C35.7673 22.5718 36.1242 22.9493 36.1407 23.448H35.4925C35.4674 23.2475 35.2263 23.0666 34.69 23.0666C34.0912 23.0666 33.9502 23.2233 33.9502 23.4162C33.9502 23.681 34.4325 23.6977 34.9437 23.7658C35.7461 23.874 36.3027 23.9383 36.3027 24.5656V24.5641Z" fill="#BAB295"/>
<path d="M6.12595 22.6284H5.27812L3.64429 24.4164V24.8742H5.49419V25.4409H6.12595V24.8742H6.66221V24.4565H6.12595V22.6284ZM5.49419 24.4565H4.31363L5.49419 23.1672V24.4565Z" fill="#BAB295"/>
<path d="M6.60962 22.6284V23.1271H8.63801L7.01671 25.4409H7.76825L9.33632 23.1271V22.6284H6.60962Z" fill="#BAB295"/>
<path d="M2.9428 24.1282C2.9428 24.1282 2.94828 24.1237 2.95063 24.1214C2.9702 24.104 2.99056 24.0851 3.00935 24.0647L3.01639 24.0579C3.15418 23.9111 3.27239 23.6962 3.27239 23.4593C3.27239 22.8048 2.74631 22.5718 2.09183 22.5718C1.43736 22.5718 0.954338 22.8586 0.883881 23.4934H1.48668C1.52426 23.1998 1.75442 23.0326 2.05034 23.022C2.4222 23.0084 2.63671 23.1642 2.65001 23.398C2.65941 23.5645 2.59365 23.6871 2.47152 23.8082L2.30321 23.9625L0.696777 25.441H3.31858V24.9469H2.07774L2.9428 24.129V24.1282Z" fill="#BAB295"/>
</g>
<defs>
<clipPath id="clip0_39943_16189">
<rect width="35.6061" height="25" fill="white" transform="translate(0.696777 0.5)"/>
</clipPath>
</defs>
</svg>
