<svg width="27" height="34" viewBox="0 0 27 34" fill="none" xmlns="http://www.w3.org/2000/svg">
<g clip-path="url(#clip0_39943_16182)">
<path d="M0.696777 10.7705V18.9768C0.696777 18.9944 0.696777 19.0295 0.696777 19.0471C0.696777 19.135 0.696777 19.2228 0.696777 19.3283C0.696777 26.2518 6.52311 31.875 13.6968 31.875C20.8704 31.875 26.6968 26.2518 26.6968 19.3283C26.6968 19.2404 26.6968 19.1525 26.6968 19.0471C26.6968 19.0295 26.6968 18.9944 26.6968 18.9768V10.7705H0.696777Z" fill="#A11E29"/>
<path d="M26.6786 9.99747V4.2337C26.6786 3.07391 25.6954 2.125 24.4937 2.125H2.88165C1.67997 2.125 0.696777 3.07391 0.696777 4.2337V9.9799H26.6786V9.99747Z" fill="#A11E29"/>
<path d="M4.15174 8.51069V7.66929L3.82007 8.29586H3.67267L3.341 7.66929V8.51069H3.08303V7.22174H3.35942L3.74637 7.95572L4.13332 7.22174H4.40971V8.51069H4.15174Z" fill="white"/>
<path d="M5.05459 7.22174H5.29412L5.79163 8.49279H5.53366L5.40468 8.17055H4.94403L4.81505 8.49279H4.55709L5.05459 7.22174ZM5.3494 8.00943L5.16514 7.50817L4.98088 8.00943H5.3494Z" fill="white"/>
<path d="M6.19698 7.68719V8.51069H5.93902V7.22174H6.1417L6.82346 8.06314V7.22174H7.08142V8.51069H6.86031L6.19698 7.68719Z" fill="white"/>
<path d="M7.72651 7.22174H7.94763L8.44513 8.49278H8.18716L8.05818 8.18845H7.59753L7.46855 8.51069H7.21058L7.72651 7.22174ZM8.02133 8.00943L7.83707 7.50817L7.65281 8.00943H8.02133Z" fill="white"/>
<path d="M9.4581 8.36747C9.34755 8.47489 9.23699 8.52859 9.08958 8.52859C8.99745 8.52859 8.92375 8.51069 8.85004 8.47488C8.77634 8.43908 8.70264 8.40328 8.64736 8.33167C8.59208 8.27796 8.55523 8.20635 8.51838 8.11684C8.48152 8.04523 8.4631 7.95572 8.4631 7.86621C8.4631 7.7767 8.48152 7.68719 8.51838 7.61558C8.55523 7.54398 8.59208 7.47237 8.64736 7.41866C8.70264 7.36496 8.77634 7.31125 8.85004 7.27545C8.92375 7.23964 9.01588 7.22174 9.10801 7.22174C9.23699 7.22174 9.32912 7.23964 9.42125 7.29335C9.51338 7.34705 9.56866 7.41866 9.62394 7.49027L9.43968 7.63349C9.40283 7.56188 9.36597 7.52607 9.29227 7.49027C9.23699 7.45447 9.16329 7.43656 9.08958 7.43656C9.0343 7.43656 8.97903 7.45447 8.94217 7.47237C8.8869 7.49027 8.85004 7.52607 8.83162 7.56188C8.79477 7.59768 8.77634 7.65139 8.75791 7.7051C8.73949 7.7588 8.73949 7.81251 8.73949 7.86621C8.73949 7.91992 8.75791 7.97363 8.77634 8.02733C8.79477 8.08104 8.83162 8.11684 8.85004 8.17055C8.8869 8.20635 8.92375 8.24216 8.97903 8.26006C9.0343 8.27796 9.07116 8.29586 9.12644 8.29586C9.25542 8.29586 9.36597 8.24216 9.47653 8.11684V8.02733H9.21857V7.84831H9.69764V8.51069H9.49496V8.36747H9.4581Z" fill="white"/>
<path d="M10.8037 8.29586V8.51069H9.90082V7.22174H10.7853V7.45447H10.1588V7.7588H10.7116V7.95572H10.1588V8.29586H10.8037Z" fill="white"/>
<path d="M12.0934 8.51069V7.66929L11.7433 8.29586H11.6143L11.2642 7.66929V8.51069H11.0063V7.22174H11.2827L11.6696 7.95572L12.075 7.22174H12.333V8.51069H12.0934Z" fill="white"/>
<path d="M13.5306 8.29586V8.51069H12.6093V7.22174H13.5122V7.45447H12.8673V7.7588H13.42V7.95572H12.8673V8.29586H13.5306Z" fill="white"/>
<path d="M13.9915 7.68719V8.51069H13.7336V7.22174H13.9363L14.618 8.06314V7.22174H14.876V8.51069H14.6549L13.9915 7.68719Z" fill="white"/>
<path d="M16.1289 7.45447H15.7051V8.51069H15.4471V7.45447H15.0418V7.22174H16.1289V7.45447Z" fill="white"/>
<path d="M17.4738 7.56172C17.4738 7.56172 17.4554 7.54381 17.4186 7.52591C17.4001 7.50801 17.3633 7.49011 17.3264 7.49011C17.2896 7.49011 17.2527 7.4722 17.2159 7.4543C17.179 7.4364 17.1422 7.4364 17.1053 7.4364C17.0316 7.4364 16.9763 7.4543 16.9395 7.4722C16.921 7.50801 16.9026 7.54381 16.9026 7.57962C16.9026 7.59752 16.9026 7.63332 16.9211 7.65123C16.9395 7.66913 16.9579 7.68703 16.9763 7.70493C16.9948 7.72283 17.0316 7.72283 17.0685 7.74074C17.1053 7.75864 17.1422 7.75864 17.1974 7.77654C17.2527 7.79444 17.3264 7.81234 17.3817 7.83025C17.437 7.84815 17.4738 7.86605 17.5107 7.90185C17.5475 7.93766 17.5844 7.97346 17.6028 8.00927C17.6212 8.04507 17.6397 8.09878 17.6397 8.15248C17.6397 8.22409 17.6212 8.2778 17.6028 8.3315C17.5844 8.38521 17.5475 8.42102 17.4923 8.45682C17.4554 8.49262 17.4001 8.51053 17.3448 8.52843C17.2896 8.54633 17.2159 8.54633 17.1606 8.54633C17.0685 8.54633 16.9579 8.52843 16.8658 8.51053C16.7736 8.47472 16.6815 8.43892 16.6078 8.38521L16.7184 8.17039C16.7368 8.18829 16.7552 8.18829 16.7736 8.20619C16.8105 8.22409 16.8289 8.24199 16.8842 8.2599C16.9211 8.2778 16.9763 8.2957 17.0132 8.2957C17.0685 8.3136 17.1053 8.3136 17.1606 8.3136C17.308 8.3136 17.3633 8.2778 17.3633 8.18829C17.3633 8.15248 17.3633 8.13458 17.3448 8.11668C17.3264 8.09878 17.308 8.08088 17.2711 8.06297C17.2343 8.04507 17.1974 8.02717 17.1606 8.02717C17.1237 8.00927 17.0685 8.00927 17.0132 7.99136C16.9579 7.97346 16.9026 7.95556 16.8473 7.93766C16.7921 7.91976 16.7552 7.90185 16.7368 7.86605C16.6999 7.83025 16.6815 7.81234 16.6631 7.77654C16.6447 7.74074 16.6447 7.70493 16.6447 7.65123C16.6447 7.57962 16.6631 7.52591 16.6815 7.4722C16.6999 7.4185 16.7368 7.38269 16.7921 7.34689C16.8289 7.31109 16.8842 7.29318 16.9395 7.27528C16.9948 7.25738 17.0685 7.25738 17.1237 7.25738C17.2159 7.25738 17.308 7.27528 17.3817 7.29318C17.4554 7.32899 17.5291 7.34689 17.5844 7.4006L17.4738 7.56172Z" fill="white"/>
<path d="M17.9523 7.22174L18.2655 7.84831L18.5972 7.22174H18.8736L18.3945 8.06314V8.51069H18.1365V8.06314L17.6759 7.22174H17.9523Z" fill="white"/>
<path d="M19.7772 7.56172C19.7772 7.56172 19.7588 7.54381 19.7219 7.52591C19.7035 7.50801 19.6666 7.49011 19.6298 7.49011C19.5929 7.49011 19.5561 7.4722 19.5192 7.4543C19.4824 7.4364 19.4455 7.4364 19.4087 7.4364C19.335 7.4364 19.2797 7.4543 19.2428 7.4722C19.206 7.49011 19.1876 7.52591 19.1876 7.57962C19.1876 7.59752 19.1876 7.63332 19.206 7.65123C19.2244 7.66913 19.2428 7.68703 19.2613 7.70493C19.2797 7.72283 19.3166 7.72283 19.3534 7.74074C19.3903 7.75864 19.4271 7.75864 19.4824 7.77654C19.5377 7.79444 19.6114 7.81234 19.6666 7.83025C19.7219 7.84815 19.7588 7.86605 19.7956 7.90185C19.8325 7.93766 19.8693 7.97346 19.8878 8.00927C19.9062 8.04507 19.9246 8.09878 19.9246 8.15248C19.9246 8.22409 19.9062 8.2778 19.8878 8.3315C19.8693 8.38521 19.8325 8.42102 19.7772 8.45682C19.7403 8.49262 19.6851 8.51053 19.6298 8.52843C19.5745 8.54633 19.5008 8.54633 19.4455 8.54633C19.3534 8.54633 19.2428 8.52843 19.1507 8.51053C19.0586 8.47472 18.9665 8.43892 18.8928 8.38521L19.0033 8.17039C19.0217 8.18829 19.0402 8.18829 19.0586 8.20619C19.0954 8.22409 19.1139 8.24199 19.1691 8.2599C19.206 8.2778 19.2613 8.2957 19.2981 8.2957C19.3534 8.3136 19.3903 8.3136 19.4455 8.3136C19.5929 8.3136 19.6482 8.2778 19.6482 8.18829C19.6482 8.15248 19.6482 8.13458 19.6298 8.11668C19.6114 8.09878 19.5929 8.08088 19.5561 8.06297C19.5192 8.04507 19.4824 8.02717 19.4455 8.02717C19.4087 8.00927 19.3534 8.00927 19.2981 7.99136C19.2428 7.97346 19.1876 7.95556 19.1323 7.93766C19.077 7.91976 19.0402 7.90185 19.0217 7.86605C18.9849 7.83025 18.9665 7.81234 18.948 7.77654C18.9296 7.74074 18.9296 7.70493 18.9296 7.65123C18.9296 7.57962 18.948 7.52591 18.9665 7.4722C18.9849 7.4185 19.0217 7.38269 19.077 7.34689C19.1139 7.31109 19.1691 7.29318 19.2244 7.27528C19.2797 7.25738 19.3534 7.25738 19.4087 7.25738C19.5008 7.25738 19.5929 7.27528 19.6666 7.29318C19.7403 7.32899 19.8141 7.34689 19.8693 7.4006L19.7772 7.56172Z" fill="white"/>
<path d="M21.1036 7.45447H20.6798V8.51069H20.4219V7.45447H19.9981V7.22174H21.1036V7.45447Z" fill="white"/>
<path d="M22.1723 8.29586V8.51069H21.2694V7.22174H22.1539V7.45447H21.5274V7.7588H22.0802V7.95572H21.5274V8.29586H22.1723Z" fill="white"/>
<path d="M23.4436 8.51069V7.66929L23.1119 8.29586H22.983L22.6329 7.66929V8.51069H22.3749V7.22174H22.6513L23.0382 7.95572L23.4436 7.22174H23.7016V8.51069H23.4436Z" fill="white"/>
<path d="M19.1137 24.3L18.6346 24.7655C18.6531 25.6785 18.432 26.6094 17.9529 27.415C17.0316 28.9546 15.318 29.9213 13.4754 29.9213C11.6328 29.9213 9.91913 28.9546 8.99783 27.415C8.07653 25.8754 8.07653 23.942 8.99783 22.4024C9.91913 20.8628 11.6328 19.8961 13.4754 19.8961C14.8942 19.8961 16.2208 20.469 17.1974 21.4357L17.5475 21.0955C16.4788 20.0393 15.0231 19.4128 13.4569 19.4128C11.4301 19.4128 9.53218 20.469 8.51875 22.1697C7.50532 23.8704 7.50532 26.0007 8.51875 27.7014C9.53218 29.4021 11.4301 30.4583 13.4569 30.4583C15.4838 30.4583 17.3817 29.4021 18.3951 27.7014C19.0216 26.6631 19.2611 25.4637 19.1137 24.3Z" fill="white"/>
<path d="M19.6846 20.1287L18.0815 21.6683L17.9157 21.8473L13.9172 25.7321L11.3007 23.19L9.97406 24.461L13.9172 28.2921L18.1736 24.1567L21.0112 21.4177V21.3998L19.6846 20.1287Z" fill="white"/>
<path d="M11.8355 14.9017C11.7065 15.0091 11.5407 15.0628 11.338 15.0807H11.2827V15.5641H11.3564C11.6881 15.5462 11.9829 15.4566 12.2224 15.2776C12.4804 15.0807 12.6647 14.8122 12.7568 14.4541C12.7568 14.4183 12.7199 14.3825 12.6831 14.3825L12.3514 14.293C12.2593 14.2751 12.1672 14.3288 12.1487 14.4004C12.1119 14.5436 12.0197 14.7406 11.8355 14.9017Z" fill="white"/>
<path d="M11.8355 12.8027C11.7065 12.6953 11.5407 12.6416 11.338 12.6237H11.2827V12.1404H11.3564C11.6881 12.1583 11.9829 12.2478 12.2224 12.4268C12.4804 12.6237 12.6647 12.8923 12.7568 13.2503C12.7568 13.2861 12.7199 13.3219 12.6831 13.3219L12.3514 13.4114C12.2593 13.4293 12.1672 13.3756 12.1487 13.304C12.1119 13.1608 12.0197 12.9818 11.8355 12.8027Z" fill="white"/>
<path d="M13.6778 15.5819H13.9358V12.1268H13.6778C13.4936 12.1268 13.3462 12.27 13.3462 12.449V15.2418C13.3462 15.4387 13.4936 15.5819 13.6778 15.5819Z" fill="white"/>
<path d="M3.4147 15.5819H3.67267V12.1268H3.4147C3.23044 12.1268 3.08303 12.27 3.08303 12.449V15.2418C3.08303 15.4387 3.23044 15.5819 3.4147 15.5819Z" fill="white"/>
<path d="M5.71802 12.6774C5.64432 12.5342 5.55219 12.4089 5.42321 12.3373C5.29423 12.2478 5.14682 12.1941 4.98098 12.1762C4.852 12.1583 4.68617 12.1404 4.44663 12.1404H3.83857V12.6595H4.48348C4.68617 12.6595 4.81515 12.6774 4.88885 12.6953C4.99941 12.7311 5.07311 12.7848 5.14682 12.8744C5.2021 12.9639 5.23895 13.0713 5.23895 13.1966C5.23895 13.3756 5.18367 13.5009 5.07311 13.5904C4.96256 13.6799 4.7783 13.7337 4.50191 13.7337H3.857V14.2528H4.50191C4.99941 14.2528 5.3495 14.1454 5.55219 13.9306C5.75488 13.7158 5.84701 13.4651 5.84701 13.1787C5.82858 12.9818 5.79173 12.8206 5.71802 12.6774Z" fill="white"/>
<path d="M8.85024 13.5412H7.17347V14.0603H8.51857C8.70283 14.0603 8.85024 13.9171 8.85024 13.7381V13.5412Z" fill="white"/>
<path d="M8.68441 12.1268H7.17347V12.646H9.01608V12.449C9.01608 12.27 8.86867 12.1268 8.68441 12.1268Z" fill="white"/>
<path d="M7.17347 15.582H8.68441C8.86867 15.582 9.01608 15.4388 9.01608 15.2598V15.0629H7.17347V15.582Z" fill="white"/>
<path d="M6.74969 15.5819H7.00765V12.1268H6.74969C6.56543 12.1268 6.41802 12.27 6.41802 12.449V15.2418C6.41802 15.4387 6.56543 15.5819 6.74969 15.5819Z" fill="white"/>
<path d="M10.4168 12.3194C10.1588 12.4626 9.95615 12.6595 9.80874 12.9102C9.66133 13.1608 9.60605 13.4651 9.60605 13.8232C9.60605 14.1454 9.66133 14.4318 9.79032 14.7183C9.9193 15.0047 10.1036 15.2195 10.3431 15.3627C10.5274 15.4702 10.7669 15.5418 11.0433 15.5776H11.117V15.0763H11.0617C10.9327 15.0584 10.8038 15.0047 10.6932 14.951C10.5274 14.8615 10.3984 14.7183 10.3247 14.5213C10.251 14.3244 10.1957 14.0917 10.1957 13.8232C10.1957 13.6262 10.2325 13.4114 10.3062 13.2324C10.38 13.0534 10.4905 12.8923 10.6563 12.7848C10.7669 12.7132 10.9143 12.6595 11.0617 12.6416H11.117V12.1404H11.0433C10.8222 12.1583 10.6195 12.2299 10.4168 12.3194Z" fill="white"/>
<path d="M15.8703 14.0022C15.7782 13.8769 15.6492 13.7874 15.5018 13.7337C15.6124 13.662 15.7045 13.5725 15.7598 13.483C15.8519 13.3398 15.8888 13.1966 15.8888 13.0534C15.8888 12.8923 15.8335 12.7311 15.7414 12.5879C15.6492 12.4447 15.5018 12.3194 15.336 12.2478C15.1702 12.1762 14.949 12.1404 14.6726 12.1404H14.083V12.6595H14.5252C14.7648 12.6595 14.9306 12.6774 15.0227 12.6953C15.1149 12.7132 15.1702 12.7669 15.2254 12.8385C15.2807 12.9102 15.2991 12.9997 15.2991 13.0892C15.2991 13.1966 15.2807 13.2682 15.2254 13.3398C15.1702 13.4114 15.0964 13.4472 15.0043 13.483C14.9306 13.5009 14.7832 13.5188 14.5989 13.5188H14.1014V14.038H14.6542C14.8569 14.038 15.0227 14.0559 15.1333 14.0917C15.2439 14.1275 15.3176 14.1812 15.3728 14.2528C15.4281 14.3423 15.465 14.4318 15.465 14.5392C15.465 14.6288 15.4465 14.7183 15.4097 14.7899C15.3728 14.8615 15.3176 14.9152 15.2623 14.951C15.207 14.9868 15.1149 15.0226 15.0227 15.0405C14.9675 15.0584 14.8753 15.0584 14.7279 15.0584H14.1199V15.5776H14.7279C14.949 15.5776 15.1333 15.5597 15.2991 15.5239C15.465 15.4881 15.5939 15.4343 15.7045 15.3448C15.8151 15.2732 15.9072 15.1479 15.9809 15.0047C16.0546 14.8615 16.0915 14.7004 16.0915 14.5392C16.0546 14.3423 15.9993 14.1633 15.8703 14.0022Z" fill="white"/>
<path d="M7.06261 17.5332C7.06261 17.4437 7.08104 17.3363 7.11789 17.2468C7.15474 17.1573 7.21002 17.0678 7.28372 16.9961C7.35742 16.9245 7.43113 16.8529 7.54168 16.8171C7.63381 16.7634 7.7628 16.7455 7.89178 16.7455C8.03919 16.7455 8.16817 16.7813 8.27873 16.835C8.38928 16.9066 8.46299 16.9782 8.51826 17.0857L8.27873 17.2468C8.2603 17.1931 8.22345 17.1573 8.20502 17.1394C8.18659 17.1215 8.14974 17.0857 8.11289 17.0678C8.07604 17.0499 8.03919 17.0319 8.00234 17.0319C7.96548 17.0319 7.92863 17.014 7.89178 17.014C7.81807 17.014 7.74437 17.0319 7.68909 17.0678C7.63381 17.1036 7.57854 17.1394 7.54168 17.1931C7.50483 17.2468 7.46798 17.3005 7.44956 17.3721C7.43113 17.4437 7.4127 17.4974 7.4127 17.569C7.4127 17.6406 7.43113 17.7122 7.44956 17.7659C7.46798 17.8196 7.50483 17.8913 7.54168 17.945C7.57854 17.9987 7.63381 18.0345 7.68909 18.0703C7.74437 18.1061 7.81807 18.124 7.89178 18.124C7.92863 18.124 7.96548 18.124 8.00234 18.1061C8.03919 18.0882 8.07604 18.0882 8.11289 18.0703C8.14974 18.0524 8.18659 18.0345 8.20502 17.9987C8.24187 17.9629 8.2603 17.9271 8.27873 17.8913L8.53669 18.0345C8.51826 18.0882 8.48141 18.1419 8.42613 18.1956C8.37086 18.2493 8.31558 18.2851 8.2603 18.303C8.20502 18.3388 8.13132 18.3567 8.05761 18.3746C7.98391 18.3925 7.92863 18.3925 7.85493 18.3925C7.74437 18.3925 7.63381 18.3746 7.52326 18.3209C7.43113 18.2672 7.339 18.2135 7.26529 18.124C7.19159 18.0345 7.13631 17.9629 7.09946 17.8554C7.08103 17.748 7.06261 17.6406 7.06261 17.5332Z" fill="white"/>
<path d="M10.066 18.0838V18.3524H8.92354V16.7591H10.0475V17.0276H9.23678V17.4215H9.93697V17.6721H9.23678V18.0838H10.066Z" fill="white"/>
<path d="M10.4712 16.7591H11.2083C11.282 16.7591 11.3557 16.777 11.411 16.8128C11.4662 16.8486 11.5215 16.8844 11.5768 16.9381C11.6321 16.9918 11.6505 17.0455 11.6873 17.1171C11.7058 17.1887 11.7242 17.2425 11.7242 17.3141C11.7242 17.4215 11.7058 17.511 11.6505 17.6005C11.5952 17.69 11.5215 17.7437 11.4294 17.7795L11.7979 18.3882H11.4294L11.0977 17.8511H10.7845V18.3882H10.4712V16.7591ZM11.1898 17.5468C11.2267 17.5468 11.2451 17.5468 11.2635 17.5289C11.282 17.511 11.3188 17.4931 11.3373 17.4752C11.3557 17.4573 11.3741 17.4215 11.3741 17.3857C11.3925 17.3499 11.3925 17.3141 11.3925 17.2783C11.3925 17.2425 11.3925 17.2066 11.3741 17.1708C11.3557 17.135 11.3373 17.1171 11.3188 17.0813C11.3004 17.0634 11.282 17.0455 11.2451 17.0276C11.2267 17.0097 11.1898 17.0097 11.1714 17.0097H10.7845V17.5468H11.1898Z" fill="white"/>
<path d="M13.3832 17.0276H12.8488V18.3524H12.5356V17.0276H12.0013V16.7591H13.3648V17.0276H13.3832Z" fill="white"/>
<path d="M13.7517 18.3524V16.7591H14.065V18.3524H13.7517Z" fill="white"/>
<path d="M14.5812 18.3524V16.7591H15.6867V17.0276H14.8944V17.4394H15.5577V17.69H14.8944V18.3524H14.5812Z" fill="white"/>
<path d="M16.0731 18.3524V16.7591H16.3863V18.3524H16.0731Z" fill="white"/>
<path d="M18.0448 18.0838V18.3524H16.9024V16.7591H18.0264V17.0276H17.2156V17.4215H17.9158V17.6721H17.2156V18.0838H18.0448Z" fill="white"/>
<path d="M18.4501 18.3524V16.7591H19.0397C19.1687 16.7591 19.2977 16.777 19.3898 16.8307C19.4819 16.8844 19.5741 16.9381 19.6478 17.0097C19.7215 17.0813 19.7583 17.1708 19.7952 17.2604C19.832 17.3499 19.8505 17.4573 19.8505 17.5647C19.8505 17.69 19.832 17.7974 19.7952 17.8869C19.7583 17.9764 19.7031 18.0659 19.6294 18.1376C19.5557 18.2092 19.4819 18.2629 19.3714 18.2987C19.2793 18.3345 19.1687 18.3524 19.0397 18.3524H18.4501ZM19.5372 17.5468C19.5372 17.4752 19.5188 17.4036 19.5004 17.332C19.4819 17.2604 19.4451 17.2066 19.4082 17.1708C19.3714 17.1171 19.3161 17.0813 19.2608 17.0634C19.2056 17.0455 19.1319 17.0276 19.0581 17.0276H18.7818V18.0838H19.0581C19.1319 18.0838 19.2056 18.0659 19.2608 18.048C19.3161 18.0122 19.3714 17.9764 19.4082 17.9406C19.4451 17.9048 19.4819 17.8332 19.5004 17.7795C19.5372 17.69 19.5372 17.6184 19.5372 17.5468Z" fill="white"/>
<path d="M3.32239 5.87893H2.99072V4.28564H3.32239V5.87893Z" fill="white"/>
<path d="M4.40937 5.46302C4.40937 5.39141 4.39094 5.3556 4.35409 5.3198C4.31724 5.284 4.26196 5.24819 4.16983 5.21239C4.004 5.15868 3.89344 5.08707 3.81974 4.99756C3.74603 4.90805 3.70918 4.81854 3.70918 4.71113C3.70918 4.58581 3.76446 4.4605 3.85659 4.38889C3.94872 4.31728 4.0777 4.26358 4.22511 4.26358C4.31724 4.26358 4.40937 4.28148 4.5015 4.31728C4.5752 4.35309 4.6489 4.4247 4.68576 4.4963C4.72261 4.56791 4.74103 4.65742 4.74103 4.74693H4.40937C4.40937 4.67533 4.39094 4.62162 4.35409 4.58581C4.31724 4.55001 4.28038 4.53211 4.20668 4.53211C4.1514 4.53211 4.09613 4.55001 4.0777 4.58581C4.04085 4.62162 4.02242 4.65742 4.02242 4.71113C4.02242 4.74693 4.04085 4.80064 4.0777 4.83644C4.11455 4.87225 4.16983 4.90805 4.26196 4.94386C4.42779 4.99756 4.53835 5.06917 4.61205 5.15868C4.68576 5.24819 4.72261 5.3377 4.72261 5.46302C4.72261 5.60623 4.68576 5.71365 4.59363 5.78525C4.5015 5.85686 4.37251 5.91057 4.22511 5.91057C4.11455 5.91057 4.02242 5.89267 3.93029 5.83896C3.83816 5.80316 3.78288 5.73155 3.72761 5.65994C3.67233 5.58833 3.6539 5.48092 3.6539 5.37351H4.004C4.004 5.46302 4.02242 5.53462 4.05927 5.57043C4.09613 5.60623 4.1514 5.62413 4.24353 5.62413C4.35409 5.62413 4.40937 5.57043 4.40937 5.46302Z" fill="white"/>
<path d="M6.25236 5.21239C6.25236 5.42721 6.19709 5.58833 6.10496 5.71364C6.01283 5.83896 5.86542 5.89267 5.68116 5.89267C5.4969 5.89267 5.34949 5.83896 5.23893 5.71364C5.12838 5.58833 5.0731 5.42721 5.0731 5.23029V4.96176C5.0731 4.74693 5.12838 4.56791 5.22051 4.4426C5.33106 4.31728 5.47847 4.26358 5.66273 4.26358C5.84699 4.26358 5.9944 4.31728 6.08653 4.4426C6.17866 4.56791 6.25236 4.72903 6.25236 4.94386V5.21239ZM5.9207 4.94386C5.9207 4.80064 5.90227 4.69323 5.86542 4.62162C5.81014 4.56791 5.73644 4.53211 5.66273 4.53211C5.5706 4.53211 5.51532 4.56791 5.46005 4.63952C5.42319 4.71113 5.40477 4.80064 5.38634 4.94386V5.23029C5.38634 5.37351 5.40477 5.46302 5.44162 5.53462C5.47847 5.60623 5.55218 5.64204 5.64431 5.64204C5.73644 5.64204 5.79171 5.60623 5.82857 5.55253C5.86542 5.48092 5.88384 5.39141 5.88384 5.24819V4.94386H5.9207Z" fill="white"/>
<path d="M6.71279 6.00424H6.47326L6.97076 4.28564H7.2103L6.71279 6.00424Z" fill="white"/>
<path d="M7.83654 5.87893H7.50487V4.28564H7.83654V5.87893Z" fill="white"/>
<path d="M9.0898 5.18075H8.57387V5.61039H9.18193V5.87893H8.2422V4.28564H9.18193V4.55417H8.57387V4.93012H9.0898V5.18075Z" fill="white"/>
<path d="M10.6007 5.3377C10.6007 5.51672 10.5454 5.65994 10.4349 5.74945C10.3243 5.83896 10.1953 5.89267 10.0295 5.89267C9.84522 5.89267 9.69781 5.83896 9.60568 5.71364C9.51355 5.58833 9.45827 5.42721 9.45827 5.21239V4.94386C9.45827 4.72903 9.51355 4.55001 9.60568 4.4426C9.71624 4.31728 9.84522 4.26358 10.0295 4.26358C10.2137 4.26358 10.3427 4.31728 10.4349 4.40679C10.527 4.4963 10.5823 4.63952 10.6007 4.81854H10.269C10.269 4.71113 10.2506 4.62162 10.2137 4.58581C10.1769 4.55001 10.1216 4.51421 10.0295 4.51421C9.93735 4.51421 9.88207 4.55001 9.84522 4.60372C9.80837 4.65742 9.78994 4.76484 9.78994 4.90805V5.21239C9.78994 5.37351 9.80837 5.48092 9.84522 5.53462C9.88207 5.58833 9.93735 5.62413 10.0295 5.62413C10.1216 5.62413 10.1769 5.60623 10.2137 5.57043C10.2506 5.53462 10.269 5.46302 10.269 5.3556H10.6007V5.3377Z" fill="white"/>
<path d="M12.517 5.87476H11.5589V5.65994L12.0011 5.10497C12.0564 5.03337 12.0932 4.96176 12.1301 4.90805C12.1485 4.85435 12.1669 4.80064 12.1669 4.74693C12.1669 4.67532 12.1485 4.62162 12.1301 4.58581C12.1116 4.55001 12.0748 4.53211 12.0195 4.53211C11.9642 4.53211 11.9274 4.55001 11.8905 4.60372C11.8537 4.65742 11.8537 4.71113 11.8537 4.80064H11.5404C11.5404 4.71113 11.5589 4.62162 11.5957 4.53211C11.6326 4.4426 11.6878 4.38889 11.78 4.33519C11.8537 4.28148 11.9458 4.26358 12.0379 4.26358C12.1853 4.26358 12.2959 4.29938 12.3696 4.38889C12.4433 4.4784 12.4802 4.56791 12.4802 4.71113C12.4802 4.80064 12.4617 4.89015 12.4065 4.97966C12.3696 5.06917 12.2775 5.17658 12.1669 5.3198L11.9642 5.60623H12.517V5.87476Z" fill="white"/>
<path d="M13.807 4.46466L13.2911 5.87893H12.9594L13.4753 4.53627H12.812V4.28564H13.807V4.46466Z" fill="white"/>
<path d="M15.0782 5.21671C15.0782 5.43154 15.0413 5.61056 14.9492 5.71797C14.8571 5.82538 14.7465 5.89699 14.5991 5.89699C14.4517 5.89699 14.3227 5.84329 14.249 5.73587C14.1753 5.61056 14.1384 5.44944 14.1384 5.23461V4.93028C14.1384 4.71545 14.1753 4.53643 14.2674 4.42902C14.3596 4.32161 14.4701 4.25 14.6175 4.25C14.7649 4.25 14.8939 4.30371 14.9676 4.42902C15.0413 4.53643 15.0966 4.71545 15.0966 4.93028V5.21671H15.0782ZM14.7649 4.89447C14.7649 4.76916 14.7465 4.67965 14.7281 4.60804C14.7097 4.55434 14.6544 4.51853 14.6175 4.51853C14.5254 4.51853 14.4701 4.62594 14.4517 4.85867V5.25252C14.4517 5.37783 14.4701 5.46734 14.4885 5.53895C14.507 5.59266 14.5622 5.62846 14.6175 5.62846C14.6728 5.62846 14.7097 5.59266 14.7281 5.53895C14.7465 5.48524 14.7649 5.39573 14.7649 5.27042V4.89447Z" fill="white"/>
<path d="M16.3681 5.21671C16.3681 5.43154 16.3312 5.61056 16.2391 5.71797C16.147 5.82538 16.0364 5.89699 15.889 5.89699C15.7416 5.89699 15.6126 5.84329 15.5389 5.73587C15.4652 5.61056 15.4283 5.44944 15.4283 5.23461V4.93028C15.4283 4.71545 15.4652 4.53643 15.5573 4.42902C15.6495 4.32161 15.76 4.25 15.9074 4.25C16.0548 4.25 16.1838 4.30371 16.2575 4.42902C16.3312 4.53643 16.3865 4.71545 16.3865 4.93028V5.21671H16.3681ZM16.0548 4.89447C16.0548 4.76916 16.0364 4.67965 16.018 4.60804C15.9995 4.55434 15.9443 4.51853 15.9074 4.51853C15.8153 4.51853 15.76 4.62594 15.7416 4.85867V5.25252C15.7416 5.37783 15.76 5.46734 15.7784 5.53895C15.7969 5.59266 15.8521 5.62846 15.9074 5.62846C15.9627 5.62846 15.9995 5.59266 16.018 5.53895C16.0364 5.48524 16.0548 5.39573 16.0548 5.27042V4.89447Z" fill="white"/>
<path d="M17.4188 5.87927H17.0871V4.66193L16.7739 4.78724V4.53661L17.3635 4.30389H17.4004V5.87927H17.4188Z" fill="white"/>
<path d="M18.0446 4.82254C18.0446 4.76883 18.063 4.73303 18.0999 4.69722C18.1367 4.66142 18.1736 4.64352 18.2288 4.64352C18.2841 4.64352 18.321 4.66142 18.3578 4.69722C18.3947 4.73303 18.4131 4.76883 18.4131 4.82254C18.4131 4.87624 18.3947 4.91205 18.3578 4.94785C18.321 4.98366 18.2841 5.00156 18.2288 5.00156C18.1736 5.00156 18.1367 4.98366 18.0999 4.94785C18.063 4.91205 18.0446 4.87624 18.0446 4.82254ZM18.0446 5.71764C18.0446 5.66394 18.063 5.62813 18.0999 5.59233C18.1367 5.55652 18.1736 5.53862 18.2288 5.53862C18.2841 5.53862 18.321 5.55652 18.3578 5.59233C18.3947 5.62813 18.4131 5.66394 18.4131 5.71764C18.4131 5.77135 18.3947 5.80715 18.3578 5.84296C18.321 5.87876 18.2841 5.89666 18.2288 5.89666C18.1736 5.89666 18.1367 5.87876 18.0999 5.84296C18.063 5.80715 18.0446 5.77135 18.0446 5.71764Z" fill="white"/>
<path d="M18.7631 5.87476V5.65994L19.2053 5.10497C19.2606 5.03337 19.2975 4.96176 19.3343 4.90805C19.3528 4.85435 19.3712 4.80064 19.3712 4.74693C19.3712 4.67532 19.3528 4.62162 19.3343 4.58581C19.3159 4.55001 19.2791 4.53211 19.2238 4.53211C19.1685 4.53211 19.1316 4.55001 19.0948 4.60372C19.0579 4.65742 19.0579 4.71113 19.0579 4.80064H18.7447C18.7447 4.71113 18.7631 4.62162 18.8 4.53211C18.8368 4.4426 18.8921 4.38889 18.9842 4.33519C19.0579 4.28148 19.1501 4.26358 19.2422 4.26358C19.3896 4.26358 19.5002 4.29938 19.5739 4.38889C19.6476 4.4784 19.7029 4.58581 19.7029 4.72903C19.7029 4.81854 19.6844 4.90805 19.6292 4.99756C19.5923 5.08707 19.5002 5.19448 19.3896 5.3377L19.1869 5.62413H19.7397V5.87476H18.7631Z" fill="white"/>
<path d="M20.993 5.21239C20.993 5.42721 20.9562 5.60623 20.864 5.71364C20.7719 5.82106 20.6614 5.89267 20.514 5.89267C20.3665 5.89267 20.2376 5.83896 20.1639 5.73155C20.0902 5.62413 20.0349 5.46302 20.0349 5.24819V4.94386C20.0349 4.72903 20.0717 4.55001 20.1639 4.4426C20.256 4.33519 20.3665 4.26358 20.514 4.26358C20.6614 4.26358 20.7903 4.31728 20.864 4.4426C20.9378 4.55001 20.993 4.72903 20.993 4.94386V5.21239ZM20.6798 4.89015C20.6798 4.76484 20.6614 4.67532 20.6429 4.60372C20.6245 4.55001 20.5692 4.51421 20.5324 4.51421C20.4403 4.51421 20.385 4.62162 20.3665 4.85435V5.24819C20.3665 5.37351 20.385 5.46302 20.4034 5.53462C20.4218 5.58833 20.4771 5.62413 20.5324 5.62413C20.5877 5.62413 20.6245 5.58833 20.6429 5.53462C20.6614 5.48092 20.6798 5.39141 20.6798 5.26609V4.89015Z" fill="white"/>
<path d="M22.0433 5.87927H21.7301V4.66193L21.4168 4.78724V4.53661L22.0064 4.30389H22.0433V5.87927Z" fill="white"/>
<path d="M23.057 4.94802C23.1123 4.94802 23.1491 4.93012 23.186 4.89431C23.2044 4.85851 23.2228 4.8048 23.2228 4.73319C23.2228 4.66159 23.2044 4.62578 23.186 4.58998C23.1491 4.55417 23.1123 4.53627 23.0754 4.53627C23.0386 4.53627 23.0017 4.55417 22.9649 4.58998C22.928 4.62578 22.928 4.66159 22.928 4.71529H22.6148C22.6148 4.62578 22.6332 4.55417 22.67 4.50047C22.7069 4.42886 22.7622 4.37515 22.8359 4.33935C22.9096 4.30354 22.9833 4.28564 23.0754 4.28564C23.2228 4.28564 23.3518 4.32145 23.4255 4.41096C23.5176 4.50047 23.5545 4.60788 23.5545 4.7511C23.5545 4.8227 23.5361 4.89431 23.4992 4.94802C23.4624 5.00173 23.4071 5.05543 23.3518 5.09124C23.4255 5.12704 23.4808 5.16284 23.5176 5.23445C23.5545 5.30606 23.5729 5.37767 23.5729 5.46718C23.5729 5.6104 23.5176 5.71781 23.4255 5.80732C23.3334 5.89683 23.2044 5.93263 23.057 5.93263C22.9096 5.93263 22.799 5.89683 22.7069 5.80732C22.6148 5.71781 22.5779 5.6104 22.5779 5.46718H22.8912C22.8912 5.52089 22.9096 5.57459 22.928 5.6104C22.9464 5.6462 23.0017 5.6641 23.0386 5.6641C23.0938 5.6641 23.1307 5.6462 23.1675 5.6104C23.2044 5.57459 23.2228 5.52089 23.2228 5.44928C23.2228 5.28816 23.1675 5.21655 23.0386 5.21655H22.8912V4.94802H23.057Z" fill="white"/>
<path d="M20.6799 12.0908H20.4219L19.298 14.0063L18.2845 12.0908V13.0933L19.298 14.9193L20.4035 13.0396V15.5459H20.6615C20.8458 15.5459 20.9932 15.4026 20.9932 15.2236V12.413C21.0116 12.234 20.8642 12.0908 20.6799 12.0908Z" fill="white"/>
<path d="M17.6028 12.413V15.2057C17.6028 15.3847 17.7502 15.5279 17.9345 15.5279H18.1924V12.0908H17.9345C17.7502 12.0908 17.6028 12.234 17.6028 12.413Z" fill="white"/>
<path d="M24.3104 14.15C24.2551 14.0426 24.1629 13.9531 24.0524 13.8635C23.9418 13.7919 23.8128 13.7203 23.647 13.6845C23.4996 13.6308 23.3338 13.595 23.1311 13.5592L23.0021 13.5234V13.9889L23.0574 14.0068C23.1679 14.0247 23.2601 14.0605 23.3522 14.0784C23.4812 14.1142 23.5733 14.15 23.6654 14.2037C23.7391 14.2574 23.7944 14.3111 23.8497 14.3648C23.8866 14.4185 23.905 14.508 23.905 14.5975C23.905 14.7586 23.8313 14.884 23.7023 14.9735C23.5549 15.063 23.3522 15.0988 23.0942 15.0988H23.0205V15.5284H23.0942C23.2785 15.5284 23.4627 15.5105 23.6102 15.4747C23.776 15.4389 23.905 15.3852 24.034 15.2957C24.1445 15.2062 24.2551 15.1167 24.3104 14.9914C24.3841 14.8661 24.4025 14.7228 24.4025 14.5617C24.4025 14.4006 24.3656 14.2574 24.3104 14.15Z" fill="white"/>
<path d="M23.5733 12.5386C23.7207 12.5923 23.8497 12.6818 23.9418 12.7714L23.9971 12.843L24.2366 12.4491L24.1998 12.4133C24.0524 12.288 23.8681 12.1806 23.6839 12.1269C23.4996 12.0553 23.2969 12.0195 23.0758 12.0195H23.0021V12.4491H23.0758C23.2601 12.4491 23.4259 12.4849 23.5733 12.5386Z" fill="white"/>
<path d="M22.3383 12.0868C22.1725 12.1226 22.0435 12.1942 21.9329 12.2837C21.8224 12.3732 21.7118 12.4806 21.6565 12.6059C21.5828 12.7312 21.5644 12.8744 21.5644 13.0356C21.5644 13.1788 21.5828 13.3041 21.6381 13.4115C21.6934 13.5189 21.7671 13.6084 21.8777 13.68C21.9698 13.7516 22.0988 13.8054 22.2462 13.8591C22.3752 13.8949 22.541 13.9486 22.7253 13.9844L22.8174 14.0023V13.5368L22.7621 13.5189C22.6884 13.501 22.6147 13.4831 22.541 13.4652C22.4304 13.4294 22.3383 13.3936 22.2646 13.3578C22.1909 13.322 22.154 13.2683 22.1172 13.2146C22.0803 13.1609 22.0619 13.0893 22.0619 12.9998C22.0619 12.8207 22.1172 12.6954 22.2462 12.6059C22.3567 12.5164 22.5226 12.4806 22.7437 12.4627H22.8174V12.033H22.7437C22.5594 12.033 22.4489 12.051 22.3383 12.0868Z" fill="white"/>
<path d="M22.5227 15.0627C22.4121 15.0448 22.3016 15.009 22.191 14.9732C22.0989 14.9374 21.9883 14.8837 21.9146 14.83C21.8409 14.7763 21.7672 14.7226 21.6935 14.6689L21.6382 14.6152L21.3803 15.009L21.4171 15.0448C21.7856 15.3313 22.2094 15.5103 22.6885 15.5282H22.7622V15.0985H22.7069C22.6517 15.0806 22.5779 15.0806 22.5227 15.0627Z" fill="white"/>
</g>
<defs>
<clipPath id="clip0_39943_16182">
<rect width="26" height="34" fill="white" transform="translate(0.696777)"/>
</clipPath>
</defs>
</svg>
