<svg width="24" height="24" viewBox="0 0 24 24" fill="none" xmlns="http://www.w3.org/2000/svg">
<g clip-path="url(#clip0_39911_2592)">
<path d="M12.5002 6.00014H12.6002C13.8603 5.74121 14.9901 5.04952 15.7937 4.04498C16.5974 3.04043 17.0242 1.78636 17.0002 0.50014C16.9998 0.425037 16.9826 0.350977 16.9497 0.28346C16.9168 0.215943 16.8691 0.156703 16.8102 0.11014C16.7545 0.0622361 16.6887 0.0274772 16.6177 0.00843624C16.5467 -0.0106047 16.4724 -0.0134401 16.4002 0.000139907C15.1383 0.259378 14.0072 0.952538 13.2034 1.95916C12.3996 2.96578 11.9738 4.22222 12.0002 5.51014C12.0002 5.64275 12.0529 5.76993 12.1466 5.86369C12.2404 5.95746 12.3676 6.01014 12.5002 6.01014V6.00014Z" fill="#E7E7E7"/>
<path d="M21.67 16.53C20.8771 16.2052 20.1992 15.6509 19.7235 14.9382C19.2478 14.2255 18.9958 13.3869 19 12.53C19.0001 11.7512 19.2042 10.986 19.592 10.3105C19.9797 9.63505 20.5375 9.07291 21.21 8.68C21.2748 8.64267 21.3304 8.59129 21.3727 8.52964C21.415 8.46798 21.4429 8.39763 21.4544 8.32374C21.466 8.24986 21.4608 8.17434 21.4392 8.10274C21.4177 8.03113 21.3804 7.96527 21.33 7.91C20.7755 7.3147 20.1056 6.8384 19.3613 6.51005C18.6169 6.1817 17.8135 6.00817 17 6C16.1933 6.01739 15.3981 6.19411 14.66 6.52C13.9793 6.82258 13.2448 6.98579 12.5 7C11.7552 6.98579 11.0207 6.82258 10.34 6.52C9.6019 6.19411 8.80665 6.01739 8 6C7.39 6 2 6.2 2 13C2 18.56 5.8 24 8 24C8.96852 24.011 9.92768 23.8096 10.81 23.41C11.3375 23.1541 11.9138 23.0142 12.5 23C13.0862 23.0142 13.6625 23.1541 14.19 23.41C15.0723 23.8096 16.0315 24.011 17 24C18.79 24 20.9 20.47 22 17.16C22.0201 17.097 22.0275 17.0306 22.0217 16.9647C22.016 16.8988 21.9972 16.8347 21.9665 16.7761C21.9359 16.7175 21.8938 16.6656 21.8429 16.6233C21.792 16.5811 21.7333 16.5494 21.67 16.53Z" fill="#E7E7E7"/>
</g>
<defs>
<clipPath id="clip0_39911_2592">
<rect width="24" height="24" fill="white"/>
</clipPath>
</defs>
</svg>
