<svg width="24" height="24" viewBox="0 0 24 24" fill="none" xmlns="http://www.w3.org/2000/svg">
<g clip-path="url(#clip0_39911_2584)">
<path d="M1.6743 18.7266C0.849061 18.7266 0.000488281 19.3759 0.000488281 20.5125C0.000488281 21.5516 0.746578 22.2856 1.6743 22.2856C2.44009 22.2856 2.78139 21.7808 2.78139 21.7808V22.0009C2.78139 22.1049 2.88151 22.2209 3.00544 22.2209H3.55898V18.8042H2.78139V19.2378C2.78139 19.2378 2.43723 18.7266 1.6743 18.7266ZM1.81282 19.4252C2.49216 19.4252 2.84852 20.0119 2.84852 20.5123C2.84852 21.0697 2.42542 21.599 1.81426 21.599C1.30337 21.599 0.791602 21.1927 0.791602 20.5049C0.791602 19.8841 1.23201 19.4252 1.81282 19.4252Z" fill="#31B04A"/>
<path d="M4.63973 22.2208C4.52026 22.2208 4.41568 22.1367 4.41568 22.0008V18.8042H5.19327V19.227C5.36947 18.9669 5.71372 18.7255 6.2421 18.7255C7.10572 18.7255 7.5656 19.4015 7.5656 20.0336V22.2208H7.02523C6.88354 22.2208 6.788 22.1044 6.788 21.9879V20.2019C6.788 19.8515 6.56937 19.4259 6.06374 19.4259C5.51815 19.4259 5.19328 19.9323 5.19328 20.409V22.2208L4.63973 22.2208Z" fill="#31B04A"/>
<path d="M9.83242 18.7266C9.00718 18.7266 8.15862 19.3759 8.15862 20.5125C8.15862 21.5516 8.90471 22.2856 9.83242 22.2856C10.5982 22.2856 10.9395 21.7809 10.9395 21.7809V22.0009C10.9395 22.1049 11.0396 22.2209 11.1636 22.2209H11.7171V17.0959H10.9395V19.2378C10.9395 19.2378 10.5953 18.7266 9.83242 18.7266ZM9.97094 19.4252C10.6503 19.4252 11.0066 20.0119 11.0066 20.5123C11.0066 21.0697 10.5835 21.599 9.97238 21.599C9.46149 21.599 8.94973 21.1927 8.94973 20.5049C8.94973 19.8841 9.39013 19.4252 9.97094 19.4252Z" fill="#31B04A"/>
<path d="M12.7978 22.2208C12.6784 22.2208 12.5738 22.1367 12.5738 22.0008V18.8042H13.3514V19.3736C13.4852 19.0546 13.7741 18.7653 14.2871 18.7653C14.4302 18.7653 14.5639 18.7912 14.5639 18.7912V19.5807C14.5639 19.5807 14.3969 19.516 14.1949 19.516C13.6493 19.516 13.3514 20.0223 13.3514 20.499V22.2208H12.7978Z" fill="#31B04A"/>
<path d="M19.2822 22.2208C19.1627 22.2208 19.0581 22.1367 19.0581 22.0008V18.8042H19.8357V22.2208L19.2822 22.2208Z" fill="#31B04A"/>
<path d="M22.1157 18.7266C21.2905 18.7266 20.4419 19.3759 20.4419 20.5125C20.4419 21.5516 21.188 22.2856 22.1157 22.2856C22.8815 22.2856 23.2228 21.7809 23.2228 21.7809V22.0009C23.2228 22.1049 23.3229 22.2209 23.4469 22.2209H24.0004V17.0959H23.2228V19.2378C23.2228 19.2378 22.8787 18.7266 22.1157 18.7266ZM22.2543 19.4252C22.9336 19.4252 23.29 20.0119 23.29 20.5123C23.29 21.0697 22.8668 21.599 22.2557 21.599C21.7448 21.599 21.233 21.1927 21.233 20.5049C21.233 19.8841 21.6734 19.4252 22.2543 19.4252Z" fill="#31B04A"/>
<path d="M19.4414 18.0674C19.7254 18.0674 19.9556 17.8413 19.9556 17.5625C19.9556 17.2837 19.7254 17.0576 19.4414 17.0576C19.1575 17.0576 18.9273 17.2837 18.9273 17.5625C18.9273 17.8413 19.1575 18.0674 19.4414 18.0674Z" fill="#31B04A"/>
<path d="M16.6147 18.7254C15.7504 18.7254 14.8009 19.3589 14.8009 20.5064C14.8009 21.5522 15.6097 22.2857 16.6128 22.2857C17.849 22.2857 18.4527 21.3098 18.4527 20.5131C18.4527 19.5354 17.6754 18.7254 16.6147 18.7254ZM16.6175 19.4385C17.2152 19.4385 17.661 19.9115 17.661 20.5086C17.661 21.1161 17.1877 21.5848 16.6193 21.5848C16.0916 21.5848 15.5787 21.1632 15.5787 20.5188C15.5787 19.8637 16.0665 19.4385 16.6175 19.4385Z" fill="#31B04A"/>
<path d="M17.8573 5.69356L19.8468 2.30927C19.9591 2.11954 19.8912 1.87854 19.7006 1.76829C19.51 1.65805 19.2619 1.72214 19.1523 1.91187L17.1366 5.33974C15.5988 4.65006 13.8678 4.26548 12.0062 4.26548C10.1446 4.26548 8.41353 4.65006 6.87569 5.33974L4.86005 1.91187C4.74778 1.72214 4.50235 1.65805 4.30914 1.76829C4.11593 1.87854 4.05066 2.11954 4.16293 2.30927L6.15245 5.69356C2.72169 7.51903 0.397958 10.929 0.0141602 14.9209H23.9982C23.6144 10.9289 21.2907 7.51899 17.8573 5.69356H17.8573ZM6.49971 11.6135C5.94358 11.6135 5.4945 11.17 5.4945 10.6264C5.4945 10.0803 5.9462 9.63933 6.49971 9.63933C7.05584 9.63933 7.50492 10.0829 7.50492 10.6264C7.50754 11.17 7.05584 11.6135 6.49971 11.6135ZM17.51 11.6135C16.9539 11.6135 16.5048 11.17 16.5048 10.6264C16.5048 10.0803 16.9565 9.63933 17.51 9.63933C18.0662 9.63933 18.5152 10.0829 18.5152 10.6264C18.5179 11.17 18.0662 11.6135 17.51 11.6135Z" fill="#31B04A"/>
</g>
<defs>
<clipPath id="clip0_39911_2584">
<rect width="24" height="24" fill="white"/>
</clipPath>
</defs>
</svg>
