<svg width="84" height="23" viewBox="0 0 84 23" fill="none" xmlns="http://www.w3.org/2000/svg">
<path d="M34.1176 8.59668C34.1176 9.09473 33.929 9.58105 33.5737 9.98535L30.8398 13.0908H34.0015V14.0693H28.8818C28.8818 13.5713 29.0703 13.085 29.4256 12.6807L32.1596 9.57519H28.9978V8.59668H34.1176Z" fill="#072259"/>
<path d="M51.9566 13.0674C52.1669 13.7646 52.8993 14.1572 53.8928 14.1572C55.5245 14.1572 56.3295 13.29 56.3295 12.1123V8.59668H54.7413V12.1885C54.7413 12.7568 54.4947 13.1377 53.7551 13.1377C53.0444 13.1377 52.7543 12.7568 52.7543 12.1885V8.59668H51.1734V12.1885C51.1589 12.7568 50.8761 13.1377 50.1727 13.1377C49.433 13.1377 49.1864 12.7568 49.1864 12.1885V8.59668H47.5983V12.1123C47.5983 13.29 48.4032 14.1572 50.0349 14.1572C51.0211 14.1572 51.7608 13.7646 51.9566 13.0674Z" fill="#072259"/>
<path d="M77.6714 10.5244V12.2646C77.6714 12.4873 77.7149 12.6807 77.8165 12.8271L77.8237 12.8447C77.86 12.8916 77.8962 12.9385 77.947 12.9736C77.976 12.9971 78.005 13.0205 78.0413 13.0381C78.05 13.0452 78.0615 13.0501 78.074 13.0555L78.0862 13.0609C78.0905 13.0629 78.0949 13.065 78.0993 13.0674L78.1065 13.0732L78.1283 13.085C78.3241 13.1787 78.5561 13.208 78.7809 13.208C78.897 13.208 79.013 13.1963 79.129 13.1787V14.1455C79.013 14.1572 78.897 14.1572 78.7809 14.1572C77.5264 14.1572 76.5546 13.6533 76.2356 12.8506L76.2283 12.8389C76.1775 12.6865 76.1485 12.5283 76.134 12.3584C76.134 12.3437 76.1322 12.3276 76.1304 12.3115C76.1286 12.2954 76.1268 12.2793 76.1268 12.2646V10.5244H75.1695V9.57519H76.1268V8.59668H77.6714V9.56934H79.129V10.5244H77.6714Z" fill="#072259"/>
<path fill-rule="evenodd" clip-rule="evenodd" d="M39.3745 10.0908C39.4108 10.1143 39.4398 10.1377 39.4688 10.1611C39.8894 10.4951 40.136 10.9463 40.1432 11.4795V12.2529H36.3723V12.2764C36.3723 12.3701 36.3795 12.4639 36.4013 12.5401C36.4085 12.5694 36.4158 12.5986 36.4231 12.6221C36.4283 12.6474 36.441 12.6757 36.4531 12.7027C36.4579 12.7133 36.4625 12.7236 36.4666 12.7334C36.5391 12.874 36.6479 12.9912 36.8074 13.0615L36.8292 13.0733C37.0177 13.167 37.257 13.1963 37.4818 13.1963C37.6124 13.1963 37.7501 13.1904 37.8734 13.1611C38.0765 13.1201 38.265 13.0264 38.3955 12.874H40.0127C39.9692 12.9736 39.9184 13.0674 39.8532 13.1611V13.167C39.4253 13.7822 38.5551 14.1514 37.4818 14.1514C36.1765 14.1514 35.1757 13.6123 34.8929 12.751V12.7393C34.8494 12.5986 34.8276 12.4463 34.8204 12.2881C34.8204 12.2793 34.8186 12.272 34.8168 12.2647C34.815 12.2573 34.8131 12.25 34.8131 12.2412V11.4795C34.8131 10.9346 35.0597 10.4776 35.4803 10.1494C35.6254 10.0322 35.7994 9.93263 35.9879 9.8506C36.0206 9.83888 36.0532 9.8257 36.0858 9.81252C36.1185 9.79934 36.1511 9.78614 36.1837 9.77443C36.2 9.76917 36.2159 9.76392 36.2316 9.75873C36.2858 9.7408 36.3378 9.7236 36.394 9.70998C36.5826 9.65138 36.7856 9.61623 37.0032 9.59279C37.0554 9.59279 37.1016 9.58805 37.1526 9.58284L37.17 9.58107C37.2643 9.57521 37.3658 9.56935 37.4673 9.56935C37.8517 9.56935 38.207 9.61623 38.5261 9.70412C38.5406 9.70705 38.5551 9.71144 38.5696 9.71584C38.5841 9.72023 38.5986 9.72462 38.6131 9.72755C38.7074 9.75685 38.7944 9.78615 38.8814 9.8213C39.0627 9.89748 39.2295 9.98537 39.3745 10.0908ZM37.4673 10.5244C36.9379 10.5244 36.365 10.7061 36.365 11.4502H38.5841C38.5841 10.7061 38.0112 10.5244 37.4673 10.5244Z" fill="#072259"/>
<path fill-rule="evenodd" clip-rule="evenodd" d="M62.3921 11.4151C62.3921 11.3498 62.3859 11.2896 62.3792 11.2251L62.3776 11.21L62.3559 11.0694C62.3486 11.0459 62.3414 11.0225 62.3414 10.9991C62.3414 10.9865 62.3372 10.9739 62.3333 10.9623C62.33 10.9522 62.3269 10.9428 62.3269 10.9346V10.9229C62.0513 10.0791 61.0723 9.54593 59.7887 9.54593C59.1071 9.54593 58.5124 9.69241 58.0628 9.96194C57.9178 10.0498 57.7872 10.1494 57.6712 10.2608L58.8387 10.8643C58.9693 10.6709 59.1723 10.5655 59.4044 10.5186C59.4189 10.5157 59.4352 10.5127 59.4515 10.5098C59.4678 10.5069 59.4841 10.5039 59.4986 10.501C59.5929 10.4893 59.6872 10.4834 59.7887 10.4834C59.8975 10.4834 60.0135 10.4893 60.1223 10.5127C60.1336 10.515 60.1438 10.5173 60.1538 10.5196L60.1621 10.5215C60.1747 10.5244 60.1877 10.5274 60.2021 10.5303C60.2818 10.5479 60.3544 10.5772 60.4269 10.6123L60.4486 10.6241L60.4559 10.6299C60.4631 10.6328 60.4704 10.6372 60.4777 10.6416C60.4849 10.646 60.4922 10.6504 60.4994 10.6534C60.6009 10.7061 60.6734 10.7764 60.7242 10.8584C60.7387 10.876 60.746 10.8877 60.7532 10.9053C60.7568 10.9141 60.7605 10.9214 60.7641 10.9287C60.7677 10.936 60.7714 10.9435 60.775 10.9522C60.7793 10.9626 60.7842 10.973 60.7892 10.9835C60.8011 11.0086 60.8134 11.0346 60.8185 11.0635C60.8207 11.0708 60.823 11.0787 60.8252 11.0867L60.8292 11.101C60.8328 11.1142 60.8366 11.128 60.8402 11.1397C60.8439 11.1485 60.8457 11.1587 60.8475 11.169C60.8493 11.1792 60.8511 11.1895 60.8547 11.1983V11.2041L60.8569 11.2164C60.8634 11.2524 60.8692 11.285 60.8692 11.3272V11.4209H59.4406C58.3384 11.4209 57.4101 11.8076 57.4101 12.7627C57.4101 13.6651 58.3819 14.1573 59.3754 14.1573C59.9193 14.1573 60.4994 14.0284 60.8692 13.7061V14.0752H62.3921V11.4912C62.3994 11.4619 62.3994 11.4385 62.3921 11.4151ZM60.8692 12.6514C60.862 12.71 60.8402 12.7627 60.804 12.8096C60.6589 13.003 60.2818 13.2139 59.6945 13.2139C59.2883 13.2139 58.933 13.0264 58.933 12.6807C58.933 12.335 59.2593 12.1182 59.8322 12.1182H60.8692V12.3994C60.8765 12.4815 60.8837 12.5635 60.8692 12.6514Z" fill="#072259"/>
<path fill-rule="evenodd" clip-rule="evenodd" d="M27.4457 10.0908C27.4819 10.1143 27.5109 10.1377 27.5399 10.1611C27.9606 10.4951 28.2071 10.9463 28.2071 11.4795V12.2529H24.4362V12.2764C24.4362 12.3701 24.4434 12.4639 24.4652 12.5401C24.4724 12.5693 24.4797 12.5987 24.4869 12.6221C24.4942 12.6397 24.5032 12.6587 24.5123 12.6778C24.5214 12.6968 24.5304 12.7158 24.5377 12.7334C24.6102 12.874 24.719 12.9912 24.8785 13.0615L24.9003 13.0733C25.0888 13.167 25.3281 13.1963 25.5529 13.1963C25.6835 13.1963 25.8213 13.1904 25.9445 13.1611C26.1476 13.1201 26.3361 13.0264 26.4667 12.874H28.0838C28.0548 12.9444 28.0186 13.0147 27.9751 13.085C27.9678 13.0967 27.9587 13.1099 27.9497 13.123C27.9406 13.1362 27.9315 13.1495 27.9243 13.1611V13.167C27.4964 13.7822 26.6262 14.1514 25.5529 14.1514C24.2476 14.1514 23.2469 13.6123 22.964 12.751V12.7393C22.9205 12.5986 22.8988 12.4463 22.8915 12.2881C22.8915 12.2793 22.8897 12.272 22.8879 12.2647C22.8861 12.2573 22.8843 12.25 22.8843 12.2412V11.4795C22.8843 10.9346 23.1308 10.4776 23.5514 10.1494C23.6965 10.0322 23.8705 9.93263 24.0591 9.8506C24.0917 9.83889 24.1243 9.82571 24.1569 9.81253C24.1896 9.79935 24.2222 9.78615 24.2549 9.77443C24.2712 9.76916 24.2871 9.76388 24.3029 9.75868C24.3571 9.74074 24.409 9.7236 24.4652 9.70998C24.6537 9.65138 24.8568 9.61623 25.0743 9.59279C25.1265 9.59279 25.1728 9.58805 25.2237 9.58284L25.2411 9.58107C25.3354 9.57521 25.4369 9.56935 25.5384 9.56935C25.9228 9.56935 26.2781 9.61623 26.5972 9.70412C26.6117 9.70705 26.6262 9.71144 26.6407 9.71584C26.6552 9.72023 26.6697 9.72462 26.6842 9.72755C26.7785 9.75685 26.8655 9.78615 26.9526 9.8213C27.1338 9.89748 27.3006 9.98537 27.4457 10.0908ZM25.5384 10.5244C25.0091 10.5244 24.4362 10.7061 24.4362 11.4502H26.6552C26.6552 10.7061 26.0823 10.5244 25.5384 10.5244Z" fill="#072259"/>
<path fill-rule="evenodd" clip-rule="evenodd" d="M45.7636 10.1611C45.7345 10.1377 45.7055 10.1143 45.6693 10.0908C45.5242 9.98537 45.3574 9.89748 45.1761 9.8213C45.0891 9.78615 45.0021 9.75685 44.9078 9.72755C44.8933 9.72462 44.8788 9.72023 44.8643 9.71583C44.8498 9.71144 44.8353 9.70704 44.8208 9.70412C44.5017 9.61623 44.1464 9.56935 43.762 9.56935C43.6605 9.56935 43.559 9.57521 43.4647 9.58107L43.4473 9.58284C43.3964 9.58805 43.3501 9.59279 43.2979 9.59279C43.0804 9.61623 42.8773 9.65138 42.6888 9.70998C42.6326 9.7236 42.5807 9.74074 42.5265 9.75867C42.5107 9.76388 42.4948 9.76916 42.4785 9.77443C42.4458 9.78614 42.4132 9.79932 42.3806 9.8125C42.348 9.82567 42.3153 9.83889 42.2827 9.8506C42.0941 9.93263 41.9273 10.0322 41.775 10.1494C41.3544 10.4776 41.1079 10.9346 41.1079 11.4795V12.2412C41.1079 12.25 41.1097 12.2573 41.1115 12.2647C41.1133 12.272 41.1151 12.2793 41.1151 12.2881C41.1224 12.4463 41.1441 12.5986 41.1876 12.7393V12.751C41.4705 13.6123 42.4712 14.1514 43.7765 14.1514C44.8498 14.1514 45.72 13.7822 46.1479 13.167V13.1611C46.2132 13.0674 46.2639 12.9736 46.3074 12.874H44.683C44.5525 13.0264 44.3639 13.1201 44.1609 13.1611C44.0376 13.1904 43.8998 13.1963 43.7693 13.1963C43.5445 13.1963 43.3052 13.167 43.1166 13.0733L43.0949 13.0615C42.9353 12.9912 42.8266 12.874 42.754 12.7334C42.7468 12.7158 42.7377 12.6968 42.7287 12.6778C42.7196 12.6588 42.7105 12.6396 42.7033 12.6221C42.696 12.5986 42.6888 12.5694 42.6815 12.5401C42.6598 12.4639 42.6525 12.3701 42.6525 12.2764V12.2529H46.4235V11.4795C46.4307 10.9463 46.1842 10.4951 45.7636 10.1611ZM42.6598 11.4502C42.6598 10.7061 43.2327 10.5244 43.762 10.5244C44.3059 10.5244 44.8788 10.7061 44.8788 11.4502H42.6598Z" fill="#072259"/>
<path fill-rule="evenodd" clip-rule="evenodd" d="M73.6976 10.0908C73.7338 10.1143 73.7628 10.1377 73.7918 10.1611C74.2124 10.4951 74.459 10.9463 74.4663 11.4795V12.2529H70.6953V12.2764C70.6953 12.3701 70.7026 12.4639 70.7243 12.5401C70.7316 12.5694 70.7388 12.5986 70.7461 12.6221C70.7513 12.6474 70.764 12.6757 70.7762 12.7027C70.7808 12.7131 70.7856 12.7237 70.7896 12.7334C70.8621 12.874 70.9709 12.9912 71.1304 13.0615L71.1522 13.0733C71.3407 13.167 71.58 13.1963 71.8048 13.1963C71.9354 13.1963 72.0732 13.1904 72.1964 13.1611C72.3995 13.1201 72.588 13.0264 72.7186 12.874H74.3357C74.2922 12.9736 74.2415 13.0674 74.1762 13.1611V13.167C73.7483 13.7822 72.8781 14.1514 71.8048 14.1514C70.4995 14.1514 69.4988 13.6123 69.2159 12.751V12.7393C69.1724 12.5986 69.1507 12.4463 69.1434 12.2881C69.1434 12.2828 69.1428 12.278 69.1418 12.2735C69.1412 12.2705 69.1405 12.2676 69.1398 12.2647C69.1388 12.2608 69.1379 12.257 69.1372 12.2529C69.1368 12.2507 69.1365 12.2485 69.1364 12.2461C69.1362 12.2446 69.1362 12.2429 69.1362 12.2412V11.4795C69.1362 10.9346 69.3827 10.4776 69.8033 10.1494C69.9484 10.0322 70.1224 9.93263 70.311 9.8506C70.3436 9.83888 70.3762 9.8257 70.4089 9.81252C70.4415 9.79933 70.4741 9.78615 70.5068 9.77443C70.5231 9.76916 70.539 9.76388 70.5548 9.75867C70.609 9.74074 70.6609 9.7236 70.7171 9.70998C70.9056 9.65138 71.1087 9.61623 71.3262 9.59279C71.3784 9.59279 71.4247 9.58805 71.4756 9.58284L71.493 9.58107C71.5873 9.57521 71.6888 9.56935 71.7903 9.56935C72.1747 9.56935 72.53 9.61623 72.8491 9.70412C72.8636 9.70705 72.8781 9.71144 72.8926 9.71584C72.9071 9.72023 72.9216 9.72462 72.9361 9.72755C73.0304 9.75685 73.1174 9.78615 73.2044 9.8213C73.3857 9.89748 73.5525 9.98537 73.6976 10.0908ZM71.7903 10.5244C71.261 10.5244 70.6881 10.7061 70.6881 11.4502H72.9071C72.9071 10.7061 72.3342 10.5244 71.7903 10.5244Z" fill="#072259"/>
<path d="M64.321 14.0693H65.2057V8.59668H63.661V13.542C63.661 13.835 63.9511 14.0693 64.321 14.0693Z" fill="#072259"/>
<path d="M67.8889 14.0693H67.0041C66.6415 14.0693 66.3442 13.835 66.3442 13.542V8.59668H67.8889V14.0693Z" fill="#072259"/>
<path d="M7.57574 9.39954C7.57574 9.19446 7.63375 8.98938 7.75703 8.80774C8.14138 8.22181 8.94633 8.05188 9.71502 8.05188H18.5622V5.96595H9.20014C8.14138 5.96009 7.03185 6.1593 6.18339 6.69251C5.69026 6.9972 5.32042 7.40735 5.10286 7.8761C4.60974 8.94251 4.90707 9.9972 5.92957 10.7765C5.96341 10.8038 5.99806 10.8305 6.03271 10.8572C6.10201 10.9106 6.1713 10.964 6.23415 11.0226C6.33567 11.1163 6.42995 11.2218 6.47346 11.3449C6.48796 11.38 6.49521 11.4034 6.49521 11.4503C6.49521 11.4972 6.48796 11.5206 6.47346 11.5558C6.42995 11.6788 6.33567 11.7843 6.23415 11.8781C6.1713 11.9367 6.102 11.99 6.03271 12.0434C5.99806 12.0701 5.96341 12.0968 5.92957 12.1241C4.90707 12.9034 4.60974 13.9523 5.10286 15.0245C5.31317 15.4992 5.69026 15.9034 6.17613 16.2081C7.0246 16.7472 8.13413 16.9406 9.19289 16.9347H18.555V14.8488H9.70777C8.94633 14.8488 8.14138 14.6788 7.75703 14.0929C7.63375 13.9113 7.57574 13.7062 7.57574 13.5011C7.57574 12.9738 7.98184 12.5753 8.51122 12.3058C8.91007 12.0949 9.29442 11.8488 9.29442 11.4503C9.29442 11.0519 8.91007 10.8058 8.51122 10.5949C7.97459 10.3253 7.56848 9.92688 7.57574 9.39954Z" fill="#03C5D3"/>
<path d="M17.6993 9.28819H10.8101C10.3315 9.28819 9.94715 9.59874 9.94715 9.98546C9.94715 10.3722 10.3315 10.6827 10.8101 10.6827H17.6993V9.28819Z" fill="#03C5D3"/>
<path d="M9.95432 12.7687C9.95432 13.1554 10.3387 13.4659 10.8173 13.4659H17.7065V12.0773H10.8173C10.3387 12.0714 9.95432 12.382 9.95432 12.7687Z" fill="#03C5D3"/>
</svg>
