<svg width="74" height="15" viewBox="0 0 74 15" fill="none" xmlns="http://www.w3.org/2000/svg">
<path d="M32.6459 9.86572V6.97408C32.6459 5.87525 31.9885 5.1427 30.9295 5.1427C30.3635 5.1427 29.7974 5.3162 29.3957 5.97164C29.0853 5.45114 28.6106 5.1427 27.9532 5.1427C27.4785 5.1427 27.022 5.29692 26.6751 5.8367V5.25837H25.7256V9.86572H26.6933V7.30179C26.6933 6.49213 27.1133 6.06803 27.7706 6.06803C28.4097 6.06803 28.7201 6.51142 28.7201 7.28252V9.84644H29.6879V7.28252C29.6879 6.47286 30.1261 6.04875 30.7652 6.04875C31.4225 6.04875 31.7329 6.49214 31.7329 7.26324V9.82716H32.6459V9.86572ZM46.8516 5.25837H45.2996V3.8511H44.3501V5.25837H43.4554V6.18369H44.3501V8.28495C44.3501 9.3645 44.7518 10.0007 45.8656 10.0007C46.2856 10.0007 46.7603 9.86572 47.0525 9.63439L46.7786 8.76689C46.4864 8.94039 46.176 9.03678 45.9387 9.03678C45.4639 9.03678 45.2996 8.72834 45.2996 8.26568V6.18369H46.8516V5.25837ZM54.977 5.1427C54.4292 5.1427 54.0641 5.41259 53.8267 5.81742V5.25837H52.8772V9.86572H53.8267V7.28252C53.8267 6.51142 54.1371 6.0873 54.7579 6.0873C54.9588 6.0873 55.1596 6.12586 55.3605 6.20297L55.6526 5.25837C55.4335 5.18126 55.1596 5.1427 54.977 5.1427ZM42.7068 5.62464C42.2503 5.29692 41.6112 5.1427 40.9173 5.1427C39.8035 5.1427 39.0914 5.70175 39.0914 6.62708C39.0914 7.3789 39.6209 7.84157 40.6069 7.99579L41.0634 8.0729C41.5929 8.15001 41.8303 8.30423 41.8303 8.55484C41.8303 8.92111 41.4834 9.1139 40.8261 9.1139C40.1687 9.1139 39.694 8.88256 39.3653 8.63195L38.9088 9.42233C39.4383 9.82716 40.0957 10.0199 40.8078 10.0199C42.0677 10.0199 42.7981 9.38378 42.7981 8.51629C42.7981 7.70663 42.2138 7.28252 41.2643 7.1283L40.8078 7.05119C40.3878 6.99335 40.0592 6.89697 40.0592 6.58852C40.0592 6.24153 40.3696 6.04875 40.8991 6.04875C41.4651 6.04875 41.9946 6.28008 42.2685 6.45358L42.7068 5.62464ZM68.1785 5.1427C67.6307 5.1427 67.2656 5.41259 67.0282 5.81742V5.25837H66.0787V9.86572H67.0282V7.28252C67.0282 6.51142 67.3386 6.0873 67.9594 6.0873C68.1603 6.0873 68.3611 6.12586 68.562 6.20297L68.8541 5.25837C68.6533 5.18126 68.3794 5.1427 68.1785 5.1427ZM55.9265 7.57168C55.9265 8.97895 56.8577 10.0007 58.2637 10.0007C58.921 10.0007 59.3593 9.84644 59.834 9.44161L59.3775 8.63195C59.0123 8.90184 58.6471 9.05606 58.2272 9.05606C57.4603 9.05606 56.9125 8.45846 56.9125 7.57168C56.9125 6.68491 57.4786 6.10658 58.2272 6.0873C58.6471 6.0873 59.0123 6.24153 59.3775 6.51142L59.834 5.70175C59.3593 5.29692 58.921 5.1427 58.2637 5.1427C56.8577 5.1427 55.9265 6.16442 55.9265 7.57168ZM64.8371 7.57168V5.25837H63.8876V5.81742C63.5772 5.39331 63.1207 5.1427 62.4999 5.1427C61.2765 5.1427 60.3088 6.16442 60.3088 7.57168C60.3088 8.97895 61.2765 10.0007 62.4999 10.0007C63.1207 10.0007 63.5772 9.73078 63.8876 9.32594V9.885H64.8371V7.57168ZM61.2948 7.57168C61.2948 6.76202 61.806 6.0873 62.6277 6.0873C63.4128 6.0873 63.9424 6.72347 63.9424 7.57168C63.9424 8.4199 63.4128 9.05606 62.6277 9.05606C61.806 9.03678 61.2948 8.38135 61.2948 7.57168ZM49.8279 5.1427C48.5497 5.1427 47.655 6.12586 47.655 7.57168C47.655 9.03679 48.5863 10.0007 49.9009 10.0007C50.5583 10.0007 51.1608 9.82716 51.6903 9.34522L51.2156 8.5934C50.8504 8.90184 50.3757 9.07534 49.9375 9.07534C49.3166 9.07534 48.7689 8.7669 48.6228 7.93796H51.8729C51.8912 7.80302 51.8912 7.68735 51.8912 7.55241C51.8912 6.12586 51.0513 5.1427 49.8279 5.1427ZM49.8096 6.02947C50.4305 6.02947 50.8139 6.4343 50.9235 7.14757H48.6593C48.7323 6.49214 49.1158 6.02947 49.8096 6.02947ZM73.6563 7.57168V3.40771H72.7068V5.81742C72.3964 5.39331 71.9399 5.1427 71.3191 5.1427C70.0957 5.1427 69.128 6.16442 69.128 7.57168C69.128 8.97895 70.0957 10.0007 71.3191 10.0007C71.9399 10.0007 72.3964 9.73078 72.7068 9.32594V9.885H73.6563V7.57168ZM70.114 7.57168C70.114 6.76202 70.6253 6.0873 71.4469 6.0873C72.2321 6.0873 72.7616 6.72347 72.7616 7.57168C72.7616 8.4199 72.2321 9.05606 71.4469 9.05606C70.6253 9.03678 70.114 8.38135 70.114 7.57168ZM37.9959 7.57168V5.25837H37.0464V5.81742C36.736 5.39331 36.2795 5.1427 35.6587 5.1427C34.4353 5.1427 33.4675 6.16442 33.4675 7.57168C33.4675 8.97895 34.4353 10.0007 35.6587 10.0007C36.2795 10.0007 36.736 9.73078 37.0464 9.32594V9.885H37.9959V7.57168ZM34.4718 7.57168C34.4718 6.76202 34.9831 6.0873 35.8047 6.0873C36.5899 6.0873 37.1194 6.72347 37.1194 7.57168C37.1194 8.4199 36.5899 9.05606 35.8047 9.05606C34.9648 9.03678 34.4718 8.38135 34.4718 7.57168Z" fill="white"/>
<path d="M10.8438 12.8082C12.3453 11.5548 13.3088 9.6146 13.3088 7.43682C13.3088 5.25904 12.3453 3.31885 10.8438 2.06547C11.9481 1.14358 13.3436 0.593262 14.8608 0.593262C18.4407 0.593262 21.3429 3.65723 21.3429 7.43682C21.3429 11.2164 18.4407 14.2804 14.8608 14.2804C13.3436 14.2804 11.9481 13.7301 10.8438 12.8082Z" fill="white"/>
<path opacity="0.28" d="M10.8438 2.06547C9.34233 3.31885 8.37883 5.25904 8.37883 7.43682C8.37883 9.6146 9.34233 11.5548 10.8438 12.8082C9.73944 13.7301 8.34399 14.2804 6.82679 14.2804C3.24684 14.2804 0.344727 11.2164 0.344727 7.43682C0.344727 3.65723 3.24684 0.593262 6.82679 0.593262C8.34399 0.593262 9.73944 1.14358 10.8438 2.06547Z" fill="white"/>
<path opacity="0.52" d="M10.8439 12.8081C12.3454 11.5547 13.3089 9.61456 13.3089 7.43678C13.3089 5.259 12.3454 3.3188 10.8439 2.06543C9.34241 3.3188 8.37891 5.259 8.37891 7.43678C8.37891 9.61456 9.34241 11.5547 10.8439 12.8081Z" fill="white"/>
</svg>
